<svg width="541" height="541" viewBox="0 0 541 541" fill="none" xmlns="http://www.w3.org/2000/svg">
<rect y="276.479" width="391" height="374" transform="rotate(-45 0 276.479)" fill="#547AFF"/>
<path d="M214.172 305.5V391H190.266V185.406H246.656C271.875 185.406 290.484 190.234 302.484 199.891C314.578 209.547 320.625 224.078 320.625 243.484C320.625 270.672 306.844 289.047 279.281 298.609L335.109 391H306.844L257.062 305.5H214.172ZM214.172 284.969H246.938C263.812 284.969 276.188 281.641 284.062 274.984C291.938 268.234 295.875 258.156 295.875 244.75C295.875 231.156 291.844 221.359 283.781 215.359C275.812 209.359 262.969 206.359 245.25 206.359H214.172V284.969Z" fill="white"/>
<path d="M384.734 212H339.688V205.297L357.734 187.156C363.234 181.594 366.859 177.625 368.609 175.25C370.359 172.875 371.672 170.562 372.547 168.312C373.422 166.062 373.859 163.641 373.859 161.047C373.859 157.391 372.75 154.5 370.531 152.375C368.312 150.219 365.234 149.141 361.297 149.141C358.453 149.141 355.75 149.609 353.188 150.547C350.656 151.484 347.828 153.188 344.703 155.656L340.578 150.359C346.891 145.109 353.766 142.484 361.203 142.484C367.641 142.484 372.688 144.141 376.344 147.453C380 150.734 381.828 155.156 381.828 160.719C381.828 165.062 380.609 169.359 378.172 173.609C375.734 177.859 371.172 183.234 364.484 189.734L349.484 204.406V204.781H384.734V212Z" fill="white"/>
</svg>
